<svg viewBox="0 0 229 46" fill="none" xmlns="http://www.w3.org/2000/svg">
<path d="M68.2803 9.23518C67.7884 7.44862 66.9937 5.49714 64.4491 5.49714C62.1977 5.49714 61.2044 7.05466 61.2044 8.58469C61.2044 10.6461 62.6044 11.6447 64.9221 12.7716C67.2302 13.9352 69.983 15.2362 69.983 18.4337C69.983 21.4021 67.3816 23.7842 63.4937 23.7842C62.3018 23.7842 61.3274 23.5551 60.6274 23.3627C59.899 23.1337 59.4544 22.9138 59.1611 22.7672C58.953 22.1717 58.5746 19.7346 58.376 18.3787L59.2557 18.1863C59.6909 19.9087 61.0058 22.7764 64.0518 22.7764C66.2748 22.7764 67.5613 21.4479 67.5613 19.3773C67.5613 17.3068 65.9532 16.2898 63.7585 15.1629C61.8855 14.1734 58.9341 12.7808 58.9341 9.58332C58.9341 6.86226 61.1855 4.54431 64.9599 4.54431C66.3032 4.54431 67.533 4.85581 68.6397 5.1948C68.7533 6.18428 68.9046 7.32035 69.1411 9.09775L68.2897 9.24433L68.2803 9.23518Z" fill="white"/>
<path d="M87.8901 23.3627V22.6297C89.6118 22.4557 89.9334 22.3457 89.9334 20.3393V15.6118C89.9334 13.6053 89.205 12.3318 87.3604 12.3318C86.3104 12.3318 85.1941 12.9273 84.0873 13.8069C84.1441 14.1459 84.1725 14.4849 84.1725 14.9979V20.5134C84.1725 22.2999 84.4373 22.4648 86.0455 22.6389V23.3719H79.7926V22.6389C81.6089 22.4648 81.8643 22.3274 81.8643 20.4584V15.5843C81.8643 13.5137 81.1075 12.3318 79.2913 12.3318C78.1561 12.3318 76.9831 13.0923 76.1034 13.8069V20.4584C76.1034 22.2999 76.3682 22.4648 77.7966 22.6389V23.3719H71.6289V22.6389C73.5587 22.4648 73.8236 22.2999 73.8236 20.4584V14.5948C73.8236 12.7808 73.7384 12.6433 72.0451 12.3868V11.7363C73.3317 11.5073 74.7885 11.1408 76.1128 10.5728V12.8632C76.7277 12.4693 77.3426 11.9562 78.2412 11.4431C78.998 10.9942 79.7075 10.6552 80.6062 10.6552C82.0062 10.6552 83.2643 11.5347 83.8792 13.0098C84.7306 12.3593 85.5725 11.8463 86.3104 11.3973C86.9252 11.0034 87.682 10.6644 88.5334 10.6644C90.7848 10.6644 92.2416 12.2219 92.2416 14.9979V20.4584C92.2416 22.3549 92.4497 22.4648 94.143 22.6389V23.3719H87.8901V23.3627Z" fill="white"/>
<path d="M95.7227 23.3626V22.6297C97.5673 22.4556 97.766 22.2907 97.766 20.3667V14.5306C97.766 12.7716 97.6809 12.6341 95.9214 12.3776V11.6996C97.416 11.4706 98.816 11.1041 100.074 10.591V20.3576C100.074 22.2815 100.282 22.4556 102.146 22.6205V23.3535H95.7133L95.7227 23.3626ZM97.2741 6.74306C97.2741 5.89101 97.9741 5.26801 98.7687 5.26801C99.5633 5.26801 100.226 5.89101 100.226 6.74306C100.226 7.5035 99.5823 8.19064 98.7309 8.19064C97.9741 8.19064 97.2741 7.51266 97.2741 6.74306Z" fill="white"/>
<path d="M108.995 23.3353C108.493 23.5918 108.058 23.7018 107.765 23.7018C105.92 23.7018 104.899 22.5657 104.899 20.3302V12.1212H102.884L102.77 11.8097L103.593 10.9851H104.908V8.95119L106.81 7.05469L107.216 7.10966V10.9943H110.518C110.811 11.3058 110.726 11.9013 110.338 12.1212H107.207V19.3682C107.207 21.6587 108.172 22.0893 108.929 22.0893C109.685 22.0893 110.329 21.8053 110.707 21.6129L110.972 22.3458L108.985 23.3353H108.995Z" fill="white"/>
<path d="M120.195 23.3627V22.6297C121.888 22.4556 122.125 22.2907 122.125 20.4492V15.7492C122.125 13.4312 121.217 12.2677 119.259 12.2677C118.152 12.2677 117.036 12.8082 116.222 13.7152V20.4492C116.222 22.2632 116.373 22.4556 118.123 22.6297V23.3627H111.899L111.927 22.6297C113.687 22.4831 113.914 22.3182 113.914 20.4492V6.94464C113.914 5.15808 113.857 5.04813 111.927 4.87406V4.19608C113.337 3.99452 115.087 3.54559 116.222 3.2066V12.7166C117.272 11.6996 118.823 10.646 120.403 10.646C122.768 10.646 124.433 12.0844 124.433 15.4835V20.44C124.433 22.309 124.67 22.474 126.363 22.6206V23.3535H120.195V23.3627Z" fill="white"/>
<path d="M135.33 14.3567C134.744 12.6617 133.75 11.5531 132.322 11.5531C131.187 11.5531 130.421 12.3685 130.421 13.5046C130.421 14.7506 131.593 15.4011 132.88 15.9417C135.103 16.8212 136.588 17.8382 136.588 19.7896C136.588 22.3641 134.1 23.7017 131.764 23.7017C130.269 23.7017 128.926 23.1612 128.434 22.7397C128.226 22.3458 127.933 20.4218 127.933 19.3957L128.718 19.2582C129.219 21.1273 130.534 22.7672 132.284 22.7672C133.362 22.7672 134.356 22.0068 134.356 20.7883C134.356 19.5697 133.504 18.8643 132.048 18.2138C130.298 17.4534 128.396 16.4822 128.396 14.3383C128.396 12.3594 130.156 10.6553 132.842 10.6553C134.044 10.6553 134.829 10.9118 135.415 11.1683C135.68 11.7913 136.002 13.4863 136.058 14.1734L135.33 14.3658V14.3567Z" fill="white"/>
<path d="M151.525 16.9586C151.525 21.5212 148.072 23.7017 145.178 23.7017C141.176 23.7017 138.773 20.5867 138.773 17.4441C138.773 12.7716 142.519 10.6461 145.206 10.6461C148.829 10.6461 151.525 13.4771 151.525 16.9586ZM141.498 16.5371C141.498 20.1011 143.078 22.7672 145.499 22.7672C147.316 22.7672 148.801 21.4662 148.801 17.5907C148.801 14.3108 147.429 11.5897 144.828 11.5897C143.078 11.5897 141.498 13.3488 141.498 16.5463" fill="white"/>
<path d="M161.468 23.3627V22.6298C163.189 22.4557 163.397 22.2358 163.397 20.2843V15.5568C163.397 13.6054 162.697 12.3319 160.739 12.3319C159.566 12.3319 158.431 13.0373 157.551 13.7794V20.4309C157.551 22.3549 157.731 22.474 159.453 22.6389V23.3719H153.105V22.6389C155.092 22.4374 155.243 22.2999 155.243 20.4309V14.604C155.243 12.79 155.063 12.68 153.493 12.396V11.7455C154.893 11.489 156.274 11.15 157.561 10.6094V12.8449C158.147 12.4235 158.791 11.9929 159.519 11.5165C160.332 11.0034 161.099 10.6644 161.95 10.6644C164.287 10.6644 165.724 12.2494 165.724 14.9705V20.4309C165.724 22.3549 165.904 22.474 167.597 22.6389V23.3719H161.486L161.468 23.3627Z" fill="white"/>
<path d="M169.187 23.3626V22.6297C171.031 22.4556 171.23 22.2907 171.23 20.3667V14.5306C171.23 12.7716 171.145 12.6341 169.385 12.3776V11.6996C170.88 11.4706 172.28 11.1041 173.538 10.591V20.3576C173.538 22.2815 173.746 22.4556 175.61 22.6205V23.3535H169.177L169.187 23.3626ZM170.738 6.74306C170.738 5.89101 171.438 5.26801 172.233 5.26801C173.027 5.26801 173.69 5.89101 173.69 6.74306C173.69 7.5035 173.046 8.19064 172.204 8.19064C171.448 8.19064 170.748 7.51266 170.748 6.74306" fill="white"/>
<path d="M186.346 23.7017C185.911 23.7017 185.296 23.4451 184.974 23.1336C184.596 22.7672 184.416 22.3732 184.274 21.8876C183.101 22.6481 181.701 23.7017 180.822 23.7017C178.75 23.7017 177.312 22.0342 177.312 20.2477C177.312 18.8642 178.069 17.9847 179.677 17.4441C181.437 16.8761 183.565 16.1157 184.208 15.6026V15.117C184.208 13.0556 183.215 11.9196 181.72 11.9196C181.162 11.9196 180.727 12.1211 180.405 12.4601C180.055 12.8541 179.791 13.4771 179.554 14.3291C179.412 14.778 179.119 14.9796 178.703 14.9796C178.173 14.9796 177.445 14.4391 177.445 13.7611C177.445 13.3671 177.795 13.0281 178.353 12.625C179.138 12.057 181.068 10.985 182.733 10.6461C183.612 10.6461 184.483 10.9026 185.126 11.4065C186.147 12.2585 186.441 13.3854 186.441 14.888V20.1286C186.441 21.4021 186.97 21.8327 187.462 21.8327C187.812 21.8327 188.219 21.6952 188.512 21.5212L188.806 22.2541L186.318 23.6925L186.346 23.7017ZM184.208 16.5646C183.593 16.8761 182.193 17.4716 181.578 17.7556C180.434 18.2687 179.8 18.8001 179.8 19.8537C179.8 21.3013 180.973 22.0067 181.872 22.0067C182.628 22.0067 183.66 21.5212 184.208 20.9898V16.5738V16.5646Z" fill="white"/>
<path d="M197.953 23.3627V22.6298C199.675 22.4557 199.883 22.2358 199.883 20.2843V15.5568C199.883 13.6054 199.183 12.3319 197.225 12.3319C196.052 12.3319 194.917 13.0373 194.037 13.7794V20.4309C194.037 22.3549 194.217 22.474 195.939 22.6389V23.3719H189.591V22.6389C191.578 22.4374 191.729 22.2999 191.729 20.4309V14.604C191.729 12.79 191.549 12.68 189.979 12.396V11.7455C191.379 11.489 192.76 11.15 194.037 10.6094V12.8449C194.624 12.4235 195.267 11.9929 195.995 11.5165C196.809 11.0034 197.575 10.6644 198.426 10.6644C200.763 10.6644 202.191 12.2494 202.191 14.9705V20.4309C202.191 22.3549 202.371 22.474 204.064 22.6389V23.3719H197.953V23.3627Z" fill="white"/>
<path d="M39.5604 27.8153C37.8104 24.8836 35.0292 24.8469 34.6887 24.8561L46.3998 22.5106L34.6981 20.1286C34.8211 20.0186 37.1009 18.0763 40.5158 18.0305C43.0889 18.003 45.3308 14.9521 43.9119 12.5975C43.9119 12.5975 43.4767 16.2806 38.6807 15.0437C35.3035 14.1734 33.3076 16.0515 33.0711 16.2898L39.6455 6.60569L29.6277 12.9365C29.6277 12.7991 29.8264 9.84898 32.2102 7.47606C34.0076 5.6895 33.3643 1.99728 30.6494 1.31014C30.6494 1.31014 33.0332 4.21444 28.7385 6.62401C25.7114 8.31895 25.6736 11.0125 25.6831 11.3424L23.2614 0L20.8018 11.3332C20.7073 11.2324 18.6829 9.01525 18.6356 5.69867C18.6072 3.20665 15.4571 1.03529 13.026 2.40956C13.026 2.40956 16.8288 2.83101 15.5517 7.47606C14.653 10.756 16.6017 12.6891 16.8382 12.909L6.83934 6.54155L12.1651 14.4482L13.376 16.2439C13.2814 16.2439 10.207 16.0699 7.72855 13.7428C5.88391 12.002 2.07165 12.625 1.36217 15.2636C1.36217 15.2636 4.36091 12.9548 6.84881 17.1143C8.60831 20.0553 11.3989 20.0828 11.7205 20.0736L0 22.419L11.7111 24.8011C11.6354 24.8652 9.34615 26.8534 5.89337 26.8992C3.32033 26.9358 1.07839 29.9775 2.49734 32.3321C2.49734 32.3321 2.93249 28.6491 7.72855 29.8859C11.1246 30.7563 13.1111 28.869 13.3381 28.6399C13.3381 28.6399 13.3381 28.6399 13.3381 28.6491L6.76367 38.324L16.7815 31.9932C16.7815 32.0939 16.6017 35.0624 14.199 37.4628C12.4016 39.2493 13.0449 42.9324 15.7693 43.6287C15.7693 43.6287 13.3854 40.7244 17.6801 38.3148C20.7167 36.6107 20.7451 33.9171 20.7356 33.5965C20.7356 33.5965 20.7356 33.5965 20.7451 33.5965L23.1668 44.9388L25.6263 33.6056C25.7114 33.6973 27.7453 35.9144 27.7831 39.2402C27.8209 41.7322 30.9616 43.9035 33.3927 42.5293C33.3927 42.5293 29.5899 42.117 30.8669 37.4628C31.7656 34.1828 29.8264 32.2497 29.5804 32.0298L39.5793 38.3973L36.1265 33.2758L33.0427 28.6949C33.1846 28.6949 36.2306 28.8781 38.6901 31.1961C40.5348 32.9368 44.347 32.3138 45.0565 29.6844C45.0565 29.6844 42.0578 31.9931 39.5699 27.8337" fill="#FFD812"/>
<path d="M68.1947 30.8204C68.0623 31.5442 67.911 32.7902 67.8069 33.6698L67.2866 33.7064C67.3055 33.0926 67.2582 32.607 67.1069 32.268C66.9366 31.8832 66.6055 31.7824 65.319 31.7824H64.2973L62.746 39.7899C62.4905 41.1 62.623 41.2008 64.1271 41.2924L64.023 41.7322H59.4729L59.577 41.2924C60.977 41.1916 61.1 41.0817 61.3459 39.7899L62.9352 31.7824H62.0649C60.6459 31.7824 60.3243 31.8924 60.0216 32.2497C59.7567 32.5612 59.4824 33.0559 59.1891 33.7248L58.6877 33.7064C58.9905 32.7719 59.2932 31.7183 59.4918 30.8296H59.8418C60.0121 31.2052 60.1918 31.2327 60.6459 31.2327H66.9272C67.3812 31.2327 67.5136 31.1319 67.8069 30.8296H68.1758L68.1947 30.8204Z" fill="white"/>
<path d="M69.2447 37.1513C70.115 35.5663 71.0989 34.4669 71.7705 34.4669C72.0543 34.4669 72.3381 34.6593 72.4894 34.8884C72.6029 35.0808 72.6029 35.3556 72.4705 35.5664C72.357 35.7588 72.1867 35.942 72.0164 36.0519C71.884 36.1527 71.7516 36.1344 71.6475 36.0519C71.4678 35.8779 71.2786 35.7771 71.0988 35.7771C70.9002 35.7771 70.6353 35.9512 70.2475 36.4734C69.8785 36.9773 69.3583 37.7377 69.0461 38.4615C68.8001 39.5426 68.592 40.5504 68.3745 41.6132C68.0245 41.6773 67.5704 41.7964 67.192 41.9063L67.0785 41.7964C67.4947 40.0648 67.9771 38.0767 68.2988 36.3543C68.4028 35.8046 68.3839 35.6396 68.2704 35.6396C68.119 35.6396 67.5704 35.9786 67.0879 36.4184L66.8514 36.0428C67.7028 35.1358 68.7434 34.4578 69.188 34.4578C69.6326 34.4578 69.642 35.1999 69.3866 36.3359L69.2069 37.1422H69.2542L69.2447 37.1513Z" fill="white"/>
<path d="M72.603 39.4142C72.603 37.307 73.7571 35.6945 75.1477 34.9982C75.7531 34.6776 76.4342 34.4669 76.9734 34.4669C78.3451 34.4669 79.1775 35.3922 79.1775 36.9864C79.1775 38.379 78.5626 39.964 77.3896 40.9076C76.6707 41.494 75.7531 41.9246 74.8166 41.9246C73.2274 41.9246 72.6125 40.7061 72.6125 39.4142M75.9707 41.1825C76.8599 40.8069 77.7869 39.0936 77.7775 37.023C77.7775 35.7129 77.191 35.099 76.4247 35.099C76.1788 35.099 75.9707 35.1448 75.7909 35.2273C75.1382 35.5205 74.022 36.8489 74.022 39.3226C74.022 40.5228 74.5422 41.2833 75.422 41.2833C75.6207 41.2833 75.7909 41.2466 75.9707 41.1825Z" fill="white"/>
<path d="M83.2265 34.6684C83.6901 34.5218 84.3333 34.4577 84.7779 34.4577C86.4996 34.4577 87.1807 35.2639 87.1807 36.7115C87.1807 37.7651 86.7172 39.0111 85.7617 40.0464C84.9293 40.9534 83.7184 41.668 82.6589 41.9246C82.3941 41.9246 81.9873 41.8971 81.6752 41.7596L81.2116 44.0226C81.0319 44.9663 81.1076 45.0946 81.9306 45.1678L82.3468 45.2045L82.2806 45.6259L78.421 45.8L78.5062 45.3969C79.5467 45.2045 79.7454 45.0579 79.963 44.0684C80.5778 41.2374 81.2116 38.4247 81.836 35.6212C81.3062 35.7953 80.8522 36.006 80.4832 36.2167L80.3697 35.7953C80.8238 35.4838 81.4008 35.2181 81.9778 34.9982L82.1576 34.2561C82.4603 33.8988 82.99 33.5415 83.3779 33.3216L83.5292 33.4224L83.2455 34.6684H83.2265ZM81.9211 40.6511C82.1197 40.9076 82.5549 41.2008 82.9711 41.2008C84.1536 41.2008 85.7807 39.0203 85.7807 36.9588C85.7807 35.5021 84.9955 35.1448 84.0306 35.1448C83.7657 35.1448 83.3968 35.1906 83.0752 35.2547L81.9211 40.6419V40.6511Z" fill="white"/>
<path d="M91.4371 40.3212C90.8695 40.9717 89.583 41.9246 89.0154 41.9246C88.6843 41.9246 88.4478 41.668 88.7789 40.3396L89.8289 36.2167C89.9141 35.8594 89.9141 35.6945 89.81 35.6945C89.6776 35.6945 89.1762 35.9694 88.6559 36.3725L88.4573 36.0152C89.3749 35.1448 90.5479 34.476 90.983 34.476C91.3709 34.476 91.3519 34.9891 91.1533 35.7586L90.0181 40.2113C89.9141 40.5961 89.9519 40.7244 90.0465 40.7244C90.2451 40.7244 90.8128 40.3029 91.2195 39.9639L91.4371 40.3212ZM91.8533 32.1031C91.8722 32.5886 91.4844 33.0284 90.9641 33.0284C90.5762 33.0284 90.2925 32.7536 90.2925 32.3321C90.2735 31.9107 90.6141 31.3793 91.1817 31.3793C91.6168 31.3793 91.8533 31.7183 91.8533 32.1031Z" fill="white"/>
<path d="M97.8515 40.1289C96.8299 41.2741 95.496 41.9246 94.5122 41.9246C93.4433 41.9246 92.7244 41.1 92.7244 39.5608C92.7244 38.2049 93.3771 36.6199 94.4649 35.6762C95.1366 35.0807 96.3001 34.4669 97.1231 34.4669C97.8421 34.4669 98.3718 34.87 98.3907 35.2731C98.4096 35.5205 98.2204 35.8228 97.861 36.0152C97.7096 36.0977 97.5961 36.061 97.4921 35.9144C97.142 35.4472 96.7353 35.2181 96.2244 35.2181C95.6379 35.2181 95.1744 35.7037 94.8339 36.2992C94.4366 37.0139 94.1149 38.1133 94.1149 39.2127C94.1149 40.3121 94.569 40.9626 95.2879 40.9626C96.1393 40.9626 97.1609 40.2205 97.615 39.7624L97.861 40.1197L97.8515 40.1289Z" fill="white"/>
<path d="M106.034 40.2389C105.116 41.32 103.99 41.9247 103.574 41.9247C103.253 41.9247 103.035 41.6773 103.29 40.5046L103.621 38.9654H103.574C102.94 39.8541 102.136 40.6328 101.417 41.2009C100.869 41.6406 100.311 41.9247 99.866 41.9247C99.4214 41.9247 98.9011 41.3933 98.9011 40.1106C98.9011 38.4798 99.6863 36.6933 100.907 35.7038C101.758 35.0258 102.978 34.4578 104.028 34.4578C104.359 34.4578 104.7 34.5036 105.069 34.586C105.286 34.6318 105.523 34.6868 105.703 34.6868L105.74 34.7509C105.476 35.7588 104.974 37.9576 104.586 40.0099C104.482 40.5596 104.539 40.7061 104.624 40.7061C104.776 40.7061 105.343 40.3213 105.845 39.8449L106.043 40.2389H106.034ZM103.849 37.7102C104.047 37.0781 104.303 35.9145 104.397 35.3923C104.161 35.2823 103.726 35.1632 103.29 35.1632C102.855 35.1632 102.392 35.2915 102.089 35.5022C100.954 36.3085 100.282 38.205 100.282 39.8083C100.282 40.5412 100.481 40.8802 100.736 40.8802C101.389 40.8802 103.29 38.8463 103.849 37.7102Z" fill="white"/>
<path d="M110.092 40.193C109.24 41.2008 108.048 41.9246 107.538 41.9246C107.207 41.9246 106.932 41.549 107.292 39.964C107.878 37.307 108.465 34.6593 109.032 32.0023C109.202 31.2877 109.098 31.1961 108.351 31.1778H107.888L107.954 30.7746C109.259 30.6464 110.215 30.2066 110.423 30.2066C110.574 30.2066 110.593 30.3532 110.527 30.6922C109.836 33.8164 109.155 36.968 108.474 40.1564C108.37 40.6236 108.436 40.7244 108.54 40.7244C108.72 40.7244 109.392 40.303 109.855 39.8357L110.111 40.193H110.092Z" fill="white"/>
<path d="M123.865 41.8604H123.695C122.106 41.7779 121.538 41.3565 120.942 40.2754C120.507 39.4783 120.157 38.7087 119.807 37.8842C119.542 37.2703 119.325 37.1421 118.719 37.1421H118.019L117.537 39.6799C117.253 41.1091 117.357 41.1824 118.71 41.3015L118.606 41.7413H114.415L114.519 41.3015C115.806 41.1733 115.91 41.1091 116.193 39.6799L117.48 33.175C117.745 31.8465 117.679 31.7824 116.345 31.6724L116.458 31.2327H120.081C120.98 31.2327 121.869 31.3426 122.437 31.7366C123.023 32.1122 123.439 32.7535 123.439 33.7247C123.439 35.3555 122.191 36.3633 120.848 36.8122C121.027 37.2612 121.462 38.2506 121.85 38.9836C122.238 39.7074 122.531 40.2296 122.881 40.6785C123.269 41.1824 123.6 41.329 124.016 41.4573L123.865 41.8604ZM118.899 36.6198C119.618 36.6198 120.204 36.5282 120.687 36.2167C121.434 35.7311 121.935 34.8608 121.935 33.853C121.935 32.442 121.179 31.7366 119.968 31.7366C119.637 31.7366 119.362 31.7824 119.22 31.9015C119.069 32.0023 118.984 32.1947 118.899 32.6161L118.114 36.629H118.899V36.6198Z" fill="white"/>
<path d="M130.298 40.0922C128.841 41.6131 127.592 41.9246 126.788 41.9246C125.984 41.9246 124.934 41.4848 124.934 39.5608C124.934 38.0583 125.634 36.3542 126.959 35.3922C127.659 34.8608 128.548 34.4669 129.267 34.4669C130.156 34.4669 130.724 35.0807 130.724 35.7678C130.724 37.3712 127.933 38.2415 126.315 38.6263C126.296 38.8371 126.296 39.002 126.296 39.1486C126.296 40.0189 126.561 40.9718 127.583 40.9718C128.283 40.9718 129.191 40.5228 130.042 39.7257L130.307 40.1014L130.298 40.0922ZM127.942 35.3189C127.507 35.5754 126.675 36.3267 126.372 38.1316C128.765 37.4994 129.475 36.7756 129.475 36.0152C129.475 35.4655 129.125 35.1448 128.642 35.1448C128.396 35.1448 128.122 35.209 127.942 35.3189Z" fill="white"/>
<path d="M130.941 40.7611C130.922 40.4863 131.14 40.248 131.424 40.0831C131.641 39.9824 131.755 40.019 131.84 40.1289C132.275 40.7611 132.89 41.1184 133.448 41.1184C134.12 41.1184 134.564 40.6603 134.564 40.1473C134.564 39.7442 134.385 39.3868 133.58 38.7913C132.824 38.2416 132.124 37.6369 132.124 36.8124C132.124 36.3451 132.322 35.8046 132.994 35.2549C133.514 34.8151 134.309 34.4578 134.867 34.4578C135.586 34.4578 136.154 34.9433 136.154 35.3648C136.154 35.6396 135.983 35.887 135.737 36.0428C135.586 36.1436 135.472 36.1069 135.368 35.9603C135.037 35.5572 134.63 35.2274 134.063 35.2274C133.58 35.2274 133.164 35.5847 133.164 36.1344C133.164 36.7116 133.647 37.1239 134.262 37.5728C135.245 38.2966 135.652 38.773 135.652 39.4693C135.652 40.697 133.978 41.9155 132.625 41.9155C131.84 41.9155 130.941 41.32 130.941 40.752" fill="white"/>
<path d="M142.52 40.0922C141.063 41.6131 139.814 41.9246 139.01 41.9246C138.206 41.9246 137.156 41.4848 137.156 39.5608C137.156 38.0583 137.856 36.3542 139.18 35.3922C139.88 34.8608 140.77 34.4669 141.489 34.4669C142.378 34.4669 142.945 35.0807 142.945 35.7678C142.945 37.3712 140.155 38.2415 138.537 38.6263C138.518 38.8371 138.518 39.002 138.518 39.1486C138.518 40.0189 138.783 40.9718 139.805 40.9718C140.505 40.9718 141.403 40.5228 142.264 39.7257L142.529 40.1014L142.52 40.0922ZM140.164 35.3189C139.729 35.5754 138.897 36.3267 138.594 38.1316C140.987 37.4994 141.697 36.7756 141.697 36.0152C141.697 35.4655 141.347 35.1448 140.864 35.1448C140.618 35.1448 140.344 35.209 140.164 35.3189Z" fill="white"/>
<path d="M150.787 40.2389C149.87 41.32 148.754 41.9247 148.328 41.9247C148.006 41.9247 147.789 41.6773 148.044 40.5046L148.375 38.9654H148.328C147.694 39.8541 146.89 40.6328 146.171 41.2009C145.622 41.6406 145.064 41.9247 144.62 41.9247C144.175 41.9247 143.655 41.3933 143.655 40.1106C143.655 38.4798 144.44 36.6933 145.66 35.7038C146.512 35.0258 147.732 34.4578 148.782 34.4578C149.113 34.4578 149.454 34.5036 149.823 34.586C150.04 34.6318 150.277 34.6868 150.456 34.6868L150.494 34.7509C150.229 35.7588 149.728 37.9576 149.34 40.0099C149.236 40.5596 149.293 40.7061 149.378 40.7061C149.529 40.7061 150.097 40.3213 150.598 39.8449L150.797 40.2389H150.787ZM148.602 37.7102C148.801 37.0781 149.056 35.9145 149.151 35.3923C148.914 35.2823 148.479 35.1632 148.054 35.1632C147.628 35.1632 147.155 35.2915 146.852 35.5022C145.717 36.3085 145.045 38.205 145.045 39.8083C145.045 40.5412 145.244 40.8802 145.5 40.8802C146.152 40.8802 148.054 38.8463 148.612 37.7102" fill="white"/>
<path d="M154.137 37.1513C155.007 35.5663 155.991 34.4669 156.662 34.4669C156.946 34.4669 157.23 34.6593 157.381 34.8884C157.495 35.0808 157.495 35.3556 157.362 35.5664C157.249 35.7588 157.079 35.942 156.908 36.0519C156.776 36.1527 156.643 36.1344 156.539 36.0519C156.36 35.8779 156.17 35.7771 155.991 35.7771C155.792 35.7771 155.518 35.9512 155.139 36.4734C154.77 36.9773 154.25 37.7377 153.938 38.4615C153.692 39.5426 153.484 40.5504 153.266 41.6132C152.916 41.6773 152.462 41.7964 152.084 41.9063L151.97 41.7964C152.387 40.0648 152.869 38.0767 153.191 36.3543C153.295 35.8046 153.276 35.6396 153.162 35.6396C153.011 35.6396 152.462 35.9786 151.97 36.4184L151.734 36.0428C152.585 35.1358 153.626 34.4578 154.07 34.4578C154.515 34.4578 154.524 35.1999 154.269 36.3359L154.089 37.1422H154.137V37.1513Z" fill="white"/>
<path d="M162.584 40.1289C161.562 41.2741 160.228 41.9246 159.244 41.9246C158.175 41.9246 157.456 41.1 157.456 39.5608C157.456 38.2049 158.109 36.6199 159.197 35.6762C159.869 35.0807 161.032 34.4669 161.855 34.4669C162.574 34.4669 163.113 34.87 163.123 35.2731C163.142 35.5205 162.952 35.8228 162.584 36.0152C162.432 36.0977 162.319 36.061 162.215 35.9144C161.865 35.4472 161.458 35.2181 160.947 35.2181C160.361 35.2181 159.897 35.7037 159.556 36.2992C159.159 37.0139 158.837 38.1133 158.837 39.2127C158.837 40.3121 159.292 40.9626 160.001 40.9626C160.852 40.9626 161.874 40.2205 162.328 39.7624L162.584 40.1197V40.1289Z" fill="white"/>
<path d="M170.889 40.3671C170 41.3566 168.969 41.9154 168.486 41.9154C168.051 41.9154 167.938 41.4665 168.203 40.3488L169.092 36.6107C169.31 35.7404 169.224 35.4472 168.959 35.4472C168.193 35.4472 166.235 37.2612 165.431 38.6721C165.251 39.3959 164.949 40.8435 164.797 41.6131C164.409 41.6956 163.974 41.7872 163.615 41.9154L163.501 41.7872C164.22 38.663 164.958 35.3922 165.62 32.094C165.79 31.2327 165.705 31.1869 165.053 31.1869L164.57 31.1686L164.636 30.7655C165.942 30.6372 166.841 30.1974 167.058 30.1974C167.209 30.1974 167.228 30.3257 167.124 30.7655L165.639 37.4811H165.677C166.774 36.0427 168.014 35.1815 168.77 34.7967C169.205 34.5676 169.584 34.4577 169.905 34.4577C170.322 34.4577 170.776 34.7692 170.359 36.51L169.489 40.1197C169.385 40.587 169.423 40.7061 169.537 40.7152C169.707 40.7152 170.237 40.4037 170.7 39.9731L170.899 40.3579L170.889 40.3671Z" fill="white"/>
<path d="M181.513 31.6634C180.198 31.7733 180.122 31.8741 179.876 33.0559L178.543 39.854C178.287 41.1 178.391 41.2008 179.763 41.2924L179.659 41.7322H175.383L175.497 41.2924C176.802 41.1917 176.916 41.0817 177.152 39.854L178.524 33.0559C178.76 31.8557 178.637 31.7825 177.256 31.6634L177.36 31.2236H181.617L181.513 31.6634Z" fill="white"/>
<path d="M188.485 40.3488C187.501 41.4024 186.564 41.9155 186.129 41.9155C185.732 41.9155 185.562 41.4757 185.874 40.2297C186.176 39.0295 186.46 37.8385 186.744 36.6383C186.981 35.7129 186.876 35.4931 186.631 35.4931C185.893 35.4931 183.953 37.4812 183.121 38.8555C182.922 39.6525 182.667 40.6054 182.468 41.5857C182.033 41.6681 181.579 41.7781 181.267 41.8972L181.163 41.7872C181.626 40.019 182.118 38.095 182.534 36.2993C182.648 35.7771 182.601 35.6488 182.506 35.6488C182.355 35.6488 181.853 35.9878 181.437 36.3818L181.201 35.997C182.118 35.0533 183.093 34.4578 183.556 34.4578C183.925 34.4578 183.991 35.0075 183.689 36.2535L183.339 37.6644H183.376C184.512 36.1619 185.751 35.2182 186.451 34.8334C186.886 34.5769 187.236 34.4578 187.548 34.4578C187.964 34.4578 188.437 34.7051 187.936 36.7757C187.671 37.8751 187.387 39.0112 187.113 40.1289C187.009 40.5687 187.028 40.7061 187.151 40.7061C187.302 40.7061 187.756 40.4313 188.239 39.964L188.485 40.3488Z" fill="white"/>
<path d="M189.298 40.7611C189.279 40.4863 189.496 40.248 189.78 40.0831C189.998 39.9824 190.111 40.019 190.196 40.1289C190.632 40.7611 191.246 41.1184 191.805 41.1184C192.476 41.1184 192.921 40.6603 192.921 40.1473C192.921 39.7442 192.741 39.3868 191.937 38.7913C191.19 38.2416 190.48 37.6369 190.48 36.8124C190.48 36.3451 190.679 35.8046 191.351 35.2549C191.871 34.8151 192.665 34.4578 193.224 34.4578C193.943 34.4578 194.51 34.9433 194.51 35.3648C194.51 35.6396 194.34 35.887 194.094 36.0428C193.942 36.1436 193.829 36.1069 193.725 35.9603C193.394 35.5572 192.987 35.2274 192.419 35.2274C191.937 35.2274 191.521 35.5847 191.521 36.1344C191.521 36.7116 192.003 37.1239 192.628 37.5728C193.611 38.2966 194.018 38.773 194.018 39.4693C194.018 40.697 192.344 41.9155 190.991 41.9155C190.206 41.9155 189.298 41.32 189.298 40.752" fill="white"/>
<path d="M199.779 35.3189L198.105 35.383L197.14 39.8173C196.96 40.6144 197.055 40.7885 197.244 40.7885C197.528 40.7885 198.332 40.2571 198.729 39.854L198.975 40.193C198.426 40.8435 197.159 41.9246 196.27 41.9246C195.882 41.9246 195.551 41.4573 195.939 39.7899L196.903 35.4013H195.664L195.617 35.2548L196.033 34.7508H197.055L197.443 33.23L198.691 32.213L198.862 32.3138L198.256 34.76H200.214L199.779 35.328V35.3189Z" fill="white"/>
<path d="M203.487 40.3212C202.92 40.9717 201.633 41.9246 201.066 41.9246C200.735 41.9246 200.498 41.668 200.829 40.3396L201.879 36.2167C201.964 35.8594 201.964 35.6945 201.86 35.6945C201.728 35.6945 201.227 35.9694 200.706 36.3725L200.508 36.0152C201.425 35.1448 202.598 34.476 203.033 34.476C203.421 34.476 203.402 34.9891 203.204 35.7586L202.068 40.2113C201.964 40.5961 202.002 40.7244 202.106 40.7244C202.305 40.7244 202.873 40.3029 203.27 39.9639L203.487 40.3212ZM203.904 32.1031C203.923 32.5886 203.535 33.0284 203.014 33.0284C202.627 33.0284 202.343 32.7536 202.343 32.3321C202.324 31.9107 202.664 31.3793 203.232 31.3793C203.667 31.3793 203.904 31.7183 203.904 32.1031Z" fill="white"/>
<path d="M209.078 35.3189L207.404 35.383L206.439 39.8173C206.259 40.6144 206.354 40.7885 206.534 40.7885C206.817 40.7885 207.621 40.2571 208.019 39.854L208.274 40.193C207.725 40.8435 206.458 41.9246 205.569 41.9246C205.181 41.9246 204.85 41.4573 205.238 39.7899L206.212 35.4013H204.973L204.925 35.2548L205.342 34.7508H206.363L206.751 33.23L208.009 32.213L208.18 32.3138L207.574 34.76H209.532L209.097 35.328L209.078 35.3189Z" fill="white"/>
<path d="M217.279 40.2663C216.475 41.2008 215.359 41.9154 214.858 41.9154C214.508 41.9154 214.271 41.6131 214.602 40.2022C214.735 39.6525 214.801 39.3318 214.924 38.7729H214.896C214.073 39.8449 213.089 40.816 212.209 41.4115C211.745 41.7322 211.254 41.9154 210.856 41.9154C210.402 41.9154 209.872 41.6131 210.289 39.8632C210.601 38.6172 210.904 37.3895 211.206 36.1435C211.31 35.7587 211.272 35.6213 211.168 35.6121C211.036 35.6121 210.563 35.9144 209.995 36.3908L209.797 35.9877C210.781 35.0532 211.821 34.4669 212.275 34.4669C212.644 34.4669 212.71 34.7875 212.455 35.8778C212.152 37.1696 211.84 38.4706 211.518 39.7624C211.339 40.5595 211.452 40.8343 211.717 40.8343C212.635 40.8343 214.508 38.663 215.179 37.4811C215.359 36.739 215.567 35.8961 215.785 34.8883L216.939 34.4669H217.119C216.664 36.1801 216.22 37.9942 215.804 40.1014C215.719 40.6053 215.756 40.7519 215.87 40.7519C216.021 40.7519 216.608 40.3671 217.071 39.909L217.289 40.2846L217.279 40.2663Z" fill="white"/>
<path d="M222.729 35.3189L221.054 35.383L220.089 39.8173C219.9 40.6144 220.004 40.7885 220.193 40.7885C220.477 40.7885 221.281 40.2571 221.678 39.854L221.934 40.193C221.385 40.8435 220.108 41.9246 219.228 41.9246C218.841 41.9246 218.509 41.4573 218.897 39.7899L219.862 35.4013H218.623L218.576 35.2548L218.992 34.7508H220.014L220.401 33.23L221.65 32.213L221.82 32.3138L221.215 34.76H223.173L222.738 35.328L222.729 35.3189Z" fill="white"/>
<path d="M228.574 40.0922C227.127 41.6131 225.869 41.9246 225.065 41.9246C224.261 41.9246 223.211 41.4848 223.211 39.5608C223.211 38.0583 223.911 36.3542 225.235 35.3922C225.935 34.8608 226.824 34.4669 227.543 34.4669C228.432 34.4669 229 35.0807 229 35.7678C229 37.3712 226.209 38.2415 224.592 38.6263C224.573 38.8371 224.573 39.002 224.573 39.1486C224.573 40.0189 224.838 40.9718 225.859 40.9718C226.559 40.9718 227.468 40.5228 228.319 39.7257L228.584 40.1014L228.574 40.0922ZM226.219 35.3189C225.784 35.5754 224.951 36.3267 224.649 38.1316C227.032 37.4994 227.751 36.7756 227.751 36.0152C227.751 35.4655 227.401 35.1448 226.919 35.1448C226.664 35.1448 226.399 35.209 226.219 35.3189Z" fill="white"/>
</svg>
